<svg version="1.1" viewBox="0.0 0.0 100.0 100.0" fill="none" stroke="none" stroke-linecap="square" stroke-miterlimit="10" xmlns:xlink="http://www.w3.org/1999/xlink" xmlns="http://www.w3.org/2000/svg"><clipPath id="p.0"><path d="m0 0l100.0 0l0 100.0l-100.0 0l0 -100.0z" clip-rule="nonzero"/></clipPath><g clip-path="url(#p.0)"><path fill="#000000" fill-opacity="0.0" d="m0 0l100.0 0l0 100.0l-100.0 0z" fill-rule="evenodd"/><path fill="#c27ba0" d="m74.7769 0.328084l0 24.732285l24.732285 0l0 49.622044l-24.732285 0l0 24.732285l-49.464565 0l0 -24.732285l-24.732283 0l0 -49.622044l24.732283 0l0 -24.732285z" fill-rule="evenodd"/><path stroke="#000000" stroke-width="1.0" stroke-linejoin="round" stroke-linecap="butt" d="m74.7769 0.328084l0 24.732285l24.732285 0l0 49.622044l-24.732285 0l0 24.732285l-49.464565 0l0 -24.732285l-24.732283 0l0 -49.622044l24.732283 0l0 -24.732285z" fill-rule="evenodd"/></g></svg>